<svg width="806" height="504" viewBox="0 0 806 504" fill="none" xmlns="http://www.w3.org/2000/svg">
<path d="M55.719 472.92L103.255 401.914L55.6949 480.643L55.6671 488.722C52.2772 488.692 48.9216 488.578 45.6002 488.378C45.5851 486.544 49.6254 385.615 49.4536 383.789C49.6881 383.72 49.8197 374.244 49.9127 373.829L0.251587 296.235L49.9661 366.485L50.1143 368.562L53.0636 290.147L10.3745 209.847L53.4012 276.369C53.4172 275.302 55.4377 114.298 55.4576 113.304C55.4698 113.832 56.3972 241.432 56.404 241.969L97.231 190.609L56.3648 253.006L56.1561 323.187L94.0432 255.321C46.7605 354.292 57.2244 319.659 56.0168 372.529L111.05 278.03L55.9697 386.142L55.719 472.92Z" fill="#F3F3F3"/>
<path d="M782.942 482.56L802.752 452.97L782.932 485.778L782.921 489.145C781.508 489.133 780.11 489.085 778.725 489.002C778.719 488.237 780.403 446.178 780.331 445.417C780.429 445.388 780.484 441.439 780.523 441.266L759.828 408.931L780.545 438.206L780.607 439.071L781.836 406.394L764.046 372.931L781.976 400.652C781.983 400.207 782.825 333.113 782.833 332.699C782.838 332.919 783.225 386.093 783.228 386.317L800.241 364.914L783.211 390.916L783.124 420.162L798.913 391.881C779.209 433.125 783.57 418.692 783.066 440.724L806 401.344L783.047 446.397L782.942 482.56Z" fill="#F3F3F3"/>
<path d="M401.683 504C623.526 504 803.365 496.675 803.365 487.639C803.365 478.603 623.526 471.278 401.683 471.278C179.839 471.278 0 478.603 0 487.639C0 496.675 179.839 504 401.683 504Z" fill="#F3F3F3"/>
<path d="M596.529 193.241H137.891V477.512H596.529V193.241Z" fill="#AAAAAA"/>
<path d="M251.396 193.241C250.928 223.155 239.169 251.678 218.656 272.661C198.144 293.644 170.52 305.405 141.743 305.408C140.454 305.408 139.173 305.385 137.891 305.338V193.241H251.396Z" fill="#FA9E57"/>
<path d="M389.645 477.511H346.024C347.665 472.871 350.637 468.866 354.537 466.036C358.437 463.207 363.079 461.69 367.834 461.69C372.59 461.69 377.232 463.207 381.132 466.036C385.032 468.866 388.004 472.871 389.645 477.511Z" fill="#FA9E57"/>
<path d="M596.529 330.472V426.223C584.704 425.623 573.555 420.316 565.391 411.404C557.227 402.491 552.673 390.655 552.673 378.348C552.673 366.04 557.227 354.204 565.391 345.292C573.555 336.379 584.704 331.073 596.529 330.472Z" fill="#FA9E57"/>
<path d="M512.273 296.538H222.942C215.479 296.538 209.429 302.827 209.429 310.586V310.586C209.429 318.344 215.479 324.634 222.942 324.634H512.273C519.736 324.634 525.786 318.344 525.786 310.586C525.786 302.827 519.736 296.538 512.273 296.538Z" fill="white"/>
<path d="M512.273 351.904H222.942C215.479 351.904 209.429 358.193 209.429 365.952V365.952C209.429 373.71 215.479 380 222.942 380H512.273C519.736 380 525.786 373.71 525.786 365.952C525.786 358.193 519.736 351.904 512.273 351.904Z" fill="white"/>
<path d="M512.273 407.27H428.383C420.92 407.27 414.87 413.559 414.87 421.318C414.87 429.077 420.92 435.366 428.383 435.366H512.273C519.736 435.366 525.786 429.077 525.786 421.318C525.786 413.559 519.736 407.27 512.273 407.27Z" fill="white"/>
<path d="M669.26 87.3526C669.26 87.3526 681.872 92.4514 682.572 109.205C683.273 125.958 679.069 172.576 679.069 172.576C679.069 172.576 694.483 195.885 682.572 202.441C670.661 208.996 669.26 176.218 669.26 176.218L655.247 107.019C655.247 107.019 663.655 86.6241 669.26 87.3526Z" fill="#FFBFA1"/>
<path d="M540.341 141.255C540.341 141.255 510.214 161.65 508.812 145.625C507.411 129.6 517.921 66.9572 517.921 66.9572C517.921 66.9572 519.322 40.0062 534.036 46.5619C548.749 53.1176 529.832 75.6981 529.832 75.6981L531.934 126.686L545.947 125.958L540.341 141.255Z" fill="#FFBFA1"/>
<path d="M588.686 160.193C588.686 160.193 496.201 124.501 501.105 166.02C506.01 207.539 529.832 259.985 529.832 259.985L538.24 273.824H555.756L544.545 198.799C544.545 198.799 584.482 222.108 596.393 218.466C596.393 218.466 611.807 325.541 617.412 333.554C623.017 341.566 632.826 438.444 632.826 438.444L641.935 450.099H659.451V286.207C659.451 286.207 689.579 184.23 666.457 179.132C643.336 174.033 588.686 160.193 588.686 160.193Z" fill="#3B3335"/>
<path d="M536.138 264.355C536.138 264.355 531.934 256.343 524.927 264.355C517.921 272.368 501.105 281.837 501.105 281.837C501.105 281.837 464.672 290.578 494.099 297.862C523.526 305.146 527.029 297.862 527.029 297.862C527.029 297.862 531.934 299.319 536.138 300.775C540.342 302.232 567.667 297.133 567.667 292.763C567.667 288.392 558.39 262.274 554.621 266.228C550.851 270.182 536.138 264.355 536.138 264.355Z" fill="#3B3335"/>
<path d="M643.278 442.889C643.278 442.889 632.947 434.044 630.516 436.571C628.085 439.098 615.324 456.156 615.324 456.156C615.324 456.156 581.294 483.321 612.286 487.744C643.278 492.166 641.455 480.163 641.455 480.163H651.178C652.393 480.163 668.8 472.581 668.193 469.423C667.585 466.264 660.293 440.506 657.862 442.329C655.431 444.152 643.278 442.889 643.278 442.889Z" fill="#3B3335"/>
<path d="M549.45 59.6732C562.606 59.6732 573.272 48.5852 573.272 34.9074C573.272 21.2296 562.606 10.1416 549.45 10.1416C536.293 10.1416 525.628 21.2296 525.628 34.9074C525.628 48.5852 536.293 59.6732 549.45 59.6732Z" fill="#FFBFA1"/>
<path d="M566.265 31.9937C566.265 31.9937 584.482 48.0187 597.094 48.0187C609.705 48.0187 578.877 77.8833 578.877 77.8833L551.552 52.3891L566.265 31.9937Z" fill="#FFBFA1"/>
<path d="M573.272 77.8833L572.726 72.1447C572.726 72.1447 586.584 46.5619 590.788 44.3767C594.992 42.1914 597.794 42.1914 597.794 42.1914C597.794 42.1914 611.807 26.8949 627.222 34.9074C642.636 42.9198 679.069 93.9082 679.069 93.9082C679.069 93.9082 653.145 96.0934 656.649 117.217C656.649 117.217 682.572 186.416 675.566 187.144C668.559 187.873 647.54 182.774 625.82 192.971C604.1 203.169 594.291 196.613 594.291 196.613L583.081 158.736C583.081 158.736 562.062 146.353 562.762 135.427L532.284 149.631L535.087 122.68L553.654 100.464C553.654 100.464 550.151 97.5502 573.272 77.8833Z" fill="#39ADA2"/>
<path d="M527.537 37.5849C526.59 38.6787 525.403 39.5189 524.078 40.0341C522.721 40.4319 521.011 39.9441 520.471 38.5906L521.478 37.2276L518.458 35.2768L519.774 33.6718L517.342 30.926L519.261 29.3426L515.606 26.625C520.344 18.5889 525.467 10.4521 532.946 5.12488C540.424 -0.202317 550.875 -2.09526 558.536 2.94355C562.514 5.55963 565.327 9.71178 567.58 14.0081C572.111 22.6486 576.106 31.071 576.695 40.8931C573.849 38.0114 569.694 36.3875 566.847 33.5059C565.587 32.1154 564.159 30.9002 562.599 29.8903C559.621 28.1449 556.059 27.9905 552.726 27.2032C549.924 26.5412 548.105 25.2279 545.985 23.3505C543.463 21.1171 543.36 21.9807 540.813 24.4952C536.391 28.8615 531.965 33.2247 527.537 37.5849Z" fill="#3B3335"/>
</svg>
