<svg width="117" height="117" viewBox="0 0 117 117" fill="none" xmlns="http://www.w3.org/2000/svg">
<circle cx="58.5" cy="58.5" r="57.5" fill="#F3F3F3" stroke="#AAAAAA" stroke-width="2"/>
<mask id="path-2-inside-1" fill="white">
<path fill-rule="evenodd" clip-rule="evenodd" d="M14.625 97.1952V95.0625C14.625 80.4741 43.8567 73.125 58.5 73.125C73.1433 73.125 102.375 80.4741 102.375 95.0625V97.1952C91.6557 109.34 75.9724 117 58.5 117C41.0276 117 25.3443 109.34 14.625 97.1952ZM58.5 24.375C46.3795 24.375 36.5625 34.192 36.5625 46.3125C36.5625 58.433 46.3795 68.25 58.5 68.25C70.6205 68.25 80.4375 58.433 80.4375 46.3125C80.4375 34.192 70.6205 24.375 58.5 24.375Z"/>
</mask>
<path fill-rule="evenodd" clip-rule="evenodd" d="M14.625 97.1952V95.0625C14.625 80.4741 43.8567 73.125 58.5 73.125C73.1433 73.125 102.375 80.4741 102.375 95.0625V97.1952C91.6557 109.34 75.9724 117 58.5 117C41.0276 117 25.3443 109.34 14.625 97.1952ZM58.5 24.375C46.3795 24.375 36.5625 34.192 36.5625 46.3125C36.5625 58.433 46.3795 68.25 58.5 68.25C70.6205 68.25 80.4375 58.433 80.4375 46.3125C80.4375 34.192 70.6205 24.375 58.5 24.375Z" fill="#F3F3F3"/>
<path d="M14.625 97.1952H12.625V97.9516L13.1255 98.5187L14.625 97.1952ZM102.375 97.1952L103.874 98.5186L104.375 97.9516V97.1952H102.375ZM16.625 97.1952V95.0625H12.625V97.1952H16.625ZM16.625 95.0625C16.625 92.15 18.0681 89.4508 20.7777 86.95C23.5009 84.4366 27.3679 82.2612 31.815 80.4797C40.7124 76.9153 51.4284 75.125 58.5 75.125V71.125C50.9283 71.125 39.7068 73.0092 30.3275 76.7665C25.6363 78.6458 21.2802 81.043 18.0648 84.0106C14.8358 86.9907 12.625 90.6808 12.625 95.0625H16.625ZM58.5 75.125C65.5716 75.125 76.2876 76.9153 85.185 80.4797C89.6321 82.2612 93.4991 84.4366 96.2223 86.95C98.9319 89.4508 100.375 92.15 100.375 95.0625H104.375C104.375 90.6808 102.164 86.9907 98.9352 84.0106C95.7198 81.043 91.3637 78.6458 86.6725 76.7665C77.2932 73.0092 66.0717 71.125 58.5 71.125V75.125ZM100.375 95.0625V97.1952H104.375V95.0625H100.375ZM100.876 95.8717C90.5198 107.605 75.3747 115 58.5 115V119C76.57 119 92.7916 111.075 103.874 98.5186L100.876 95.8717ZM58.5 115C41.6252 115 26.4802 107.605 16.1245 95.8717L13.1255 98.5187C24.2084 111.075 40.43 119 58.5 119V115ZM38.5625 46.3125C38.5625 35.2966 47.4841 26.375 58.5 26.375V22.375C45.275 22.375 34.5625 33.0875 34.5625 46.3125H38.5625ZM58.5 66.25C47.4841 66.25 38.5625 57.3284 38.5625 46.3125H34.5625C34.5625 59.5375 45.275 70.25 58.5 70.25V66.25ZM78.4375 46.3125C78.4375 57.3284 69.5159 66.25 58.5 66.25V70.25C71.725 70.25 82.4375 59.5375 82.4375 46.3125H78.4375ZM58.5 26.375C69.5159 26.375 78.4375 35.2966 78.4375 46.3125H82.4375C82.4375 33.0875 71.725 22.375 58.5 22.375V26.375Z" fill="#AAAAAA" mask="url(#path-2-inside-1)"/>
</svg>
