<svg width="24" height="23" viewBox="0 0 24 23" fill="none" xmlns="http://www.w3.org/2000/svg">
<path d="M16 3.8335H18C18.5304 3.8335 19.0391 4.03543 19.4142 4.39487C19.7893 4.75432 20 5.24183 20 5.75016V19.1668C20 19.6752 19.7893 20.1627 19.4142 20.5221C19.0391 20.8816 18.5304 21.0835 18 21.0835H6C5.46957 21.0835 4.96086 20.8816 4.58579 20.5221C4.21071 20.1627 4 19.6752 4 19.1668V5.75016C4 5.24183 4.21071 4.75432 4.58579 4.39487C4.96086 4.03543 5.46957 3.8335 6 3.8335H8" stroke="white" stroke-width="2" stroke-linecap="round" stroke-linejoin="round"/>
<path d="M15 1.9165H9C8.44772 1.9165 8 2.34556 8 2.87484V4.7915C8 5.32078 8.44772 5.74984 9 5.74984H15C15.5523 5.74984 16 5.32078 16 4.7915V2.87484C16 2.34556 15.5523 1.9165 15 1.9165Z" stroke="white" stroke-width="2" stroke-linecap="round" stroke-linejoin="round"/>
</svg>
