<svg width="806" height="504" viewBox="0 0 806 504" fill="none" xmlns="http://www.w3.org/2000/svg">
<g clip-path="url(#clip0)">
<path d="M617.093 498.301C606.774 489.181 600.506 474.774 602.15 460.749C603.793 446.724 613.974 433.831 627.18 430.853C640.386 427.875 655.44 436.119 659.452 449.612C661.659 423.598 664.203 396.495 677.426 374.342C689.399 354.283 710.137 339.93 732.613 337.363C755.088 334.795 778.752 344.493 792.769 363.047C806.786 381.601 810.218 408.575 800.401 429.876C793.169 445.568 779.845 457.246 765.885 466.747C720.775 497.189 666.671 509.569 613.529 501.608L617.093 498.301Z" fill="#39ADA2"/>
<path d="M770.543 345.031C751.998 360.829 734.985 378.499 719.75 397.784C695.907 427.861 676.614 461.584 662.541 497.776C661.511 500.416 665.61 501.566 666.629 498.955C689.654 440.134 726.412 388.291 773.541 348.166C775.657 346.363 772.642 343.243 770.543 345.031Z" fill="white"/>
<path d="M259.464 495.823C273.638 483.297 282.246 463.509 279.989 444.246C277.731 424.983 263.748 407.274 245.609 403.184C227.47 399.093 206.794 410.416 201.284 428.949C198.252 393.219 194.759 355.993 176.596 325.566C160.151 298.015 131.667 278.301 100.797 274.775C69.9275 271.248 37.4255 284.568 18.173 310.052C-1.07939 335.536 -5.79326 372.584 7.69064 401.842C17.6238 423.395 35.9241 439.435 55.0982 452.484C116.27 494.117 192.154 511.48 264.359 500.366" fill="#39ADA2"/>
<path d="M48.6997 285.306C74.1712 307.006 97.5386 331.275 118.464 357.763C139.393 384.223 157.818 412.745 173.481 442.926C182.236 459.857 190.101 477.275 197.041 495.102C198.456 498.728 192.826 500.307 191.427 496.721C179.135 465.291 163.927 435.198 146.023 406.871C128.205 378.647 107.812 352.297 85.1293 328.192C72.3 314.565 58.764 301.685 44.5826 289.612C41.6758 287.137 45.8169 282.851 48.6997 285.306L48.6997 285.306Z" fill="white"/>
<path d="M578.56 502.897H240.41V140.017C240.41 62.811 300.464 0 374.28 0H444.69C518.506 0 578.56 62.811 578.56 140.017V502.897Z" fill="#39ADA2"/>
<path d="M508.151 502.897H240.41V140.017C240.336 110.433 249.293 81.5975 265.976 57.7078C266.591 56.8311 267.204 55.9657 267.837 55.1098C275.907 44.0404 285.509 34.2916 296.329 26.1855C296.94 25.7204 297.554 25.2633 298.176 24.8063C307.23 18.2535 317.023 12.8968 327.333 8.85796C327.946 8.61524 328.569 8.37205 329.192 8.13879C338.517 4.65831 348.183 2.2742 358.012 1.03048C358.622 0.943417 359.247 0.87529 359.873 0.807162C369.451 -0.264008 379.112 -0.264008 388.69 0.807162C389.314 0.87529 389.939 0.943409 390.556 1.03141C400.383 2.27521 410.046 4.65903 419.369 8.13883C419.992 8.37209 420.615 8.61527 421.23 8.85846C431.413 12.8463 441.091 18.1231 450.048 24.5711C450.67 25.0183 451.293 25.4753 451.906 25.9323C457.971 30.4601 463.667 35.5043 468.938 41.0134C473.164 45.4324 477.102 50.1427 480.726 55.1127C481.357 55.9658 481.97 56.8312 482.584 57.7064C499.267 81.5963 508.224 110.433 508.151 140.017V502.897Z" fill="#AAAAAA"/>
<path d="M486.379 340.594C494.566 340.594 501.202 333.653 501.202 325.09C501.202 316.528 494.566 309.587 486.379 309.587C478.193 309.587 471.556 316.528 471.556 325.09C471.556 333.653 478.193 340.594 486.379 340.594Z" fill="#FA9E57"/>
<path d="M550.858 492.028H539.5L534.096 446.207L550.86 446.208L550.858 492.028Z" fill="#FFBFA1"/>
<path d="M531.387 488.633H553.292V503.058H517.595C517.595 501.164 517.952 499.288 518.645 497.538C519.338 495.788 520.354 494.198 521.635 492.858C522.916 491.519 524.436 490.456 526.109 489.731C527.783 489.006 529.576 488.633 531.387 488.633Z" fill="#3B3335"/>
<path d="M607.371 492.028H596.013L590.609 446.207L607.373 446.208L607.371 492.028Z" fill="#FFBFA1"/>
<path d="M587.9 488.633H609.804V503.058H574.108C574.108 501.164 574.465 499.288 575.158 497.538C575.851 495.788 576.867 494.198 578.148 492.858C579.428 491.519 580.949 490.456 582.622 489.731C584.295 489.006 586.089 488.633 587.9 488.633Z" fill="#3B3335"/>
<path d="M493.881 328.162C493.064 326.902 492.521 325.471 492.29 323.969C492.059 322.466 492.146 320.929 492.544 319.465C492.942 318.002 493.643 316.647 494.596 315.498C495.549 314.348 496.731 313.43 498.06 312.81L536.67 201.507L555.669 212.352L511.584 318.716C512.432 321.12 512.408 323.766 511.516 326.152C510.624 328.538 508.926 330.499 506.744 331.663C504.562 332.827 502.047 333.114 499.676 332.469C497.306 331.823 495.244 330.291 493.881 328.162Z" fill="#FFBFA1"/>
<path d="M601.569 349.076C600.307 348.319 599.219 347.282 598.381 346.037C597.544 344.793 596.977 343.372 596.722 341.874C596.466 340.375 596.528 338.837 596.902 337.366C597.277 335.896 597.955 334.529 598.889 333.362L586.928 215.623L608.549 216.656L613.52 332.468C615.29 334.24 616.377 336.628 616.576 339.182C616.774 341.736 616.07 344.277 614.597 346.324C613.124 348.371 610.984 349.782 608.583 350.289C606.182 350.796 603.686 350.365 601.569 349.076Z" fill="#FFBFA1"/>
<path d="M567.077 180.891C579.644 180.891 589.832 170.236 589.832 157.092C589.832 143.948 579.644 133.293 567.077 133.293C554.511 133.293 544.323 143.948 544.323 157.092C544.323 170.236 554.511 180.891 567.077 180.891Z" fill="#FFBFA1"/>
<path d="M601.424 322.298H532.824L532.907 321.74C533.03 320.905 545.133 237.983 536.207 210.855C535.311 208.189 535.39 205.271 536.428 202.662C537.466 200.053 539.39 197.938 541.829 196.724H541.83C554.588 190.44 579.079 182.702 599.75 201.481C602.792 204.289 605.168 207.8 606.689 211.735C608.21 215.669 608.835 219.92 608.514 224.151L601.424 322.298Z" fill="#FA9E57"/>
<path d="M546 250.238L515.115 243.684L529.592 207.803C530.458 204.328 532.607 201.354 535.567 199.534C538.527 197.713 542.057 197.195 545.381 198.093C548.706 198.991 551.555 201.231 553.302 204.322C555.05 207.414 555.554 211.104 554.704 214.584L546 250.238Z" fill="#FA9E57"/>
<path d="M585.555 262.406L583.698 217.89C582.29 209.521 586.87 201.611 593.914 200.318C600.96 199.029 607.84 204.833 609.254 213.263L616.233 254.859L585.555 262.406Z" fill="#FA9E57"/>
<path d="M599.142 316.969C610.18 360.938 611.384 416.84 608.406 477.819L593.583 475.881L566.716 359.604L551.893 477.819L535.217 476.85C530.236 412.869 525.385 357.942 533.365 321.814L599.142 316.969Z" fill="#3B3335"/>
<path d="M582.07 175.485C577.825 180.214 569.942 177.675 569.389 171.214C569.345 170.713 569.349 170.208 569.398 169.707C569.684 166.845 571.265 164.247 570.886 161.225C570.8 160.473 570.532 159.756 570.108 159.143C566.725 154.405 558.784 161.262 555.592 156.973C553.634 154.343 555.936 150.203 554.433 147.263C552.451 143.384 546.578 145.298 542.896 143.173C538.798 140.809 539.043 134.234 541.74 130.235C545.03 125.357 550.797 122.755 556.492 122.38C562.188 122.005 567.844 123.615 573.161 125.782C579.203 128.245 585.193 131.648 588.911 137.204C593.432 143.961 593.867 153.045 591.606 160.945C590.231 165.752 585.537 171.623 582.07 175.485Z" fill="#3B3335"/>
<path d="M778.19 503.52H94.2071C93.9151 503.519 93.6353 503.397 93.4291 503.181C93.223 502.965 93.1072 502.672 93.1072 502.367C93.1072 502.061 93.223 501.768 93.4291 501.552C93.6353 501.336 93.9151 501.214 94.2071 501.213H778.19C778.482 501.214 778.761 501.336 778.968 501.552C779.174 501.768 779.29 502.061 779.29 502.367C779.29 502.672 779.174 502.965 778.968 503.181C778.761 503.397 778.482 503.519 778.19 503.52Z" fill="#3B3335"/>
<path d="M434.499 397.763H314.062C312.476 397.772 310.951 397.123 309.822 395.957C308.693 394.792 308.053 393.206 308.04 391.547V110.381C308.053 108.722 308.693 107.136 309.822 105.97C310.951 104.805 312.476 104.156 314.062 104.165H434.499C436.085 104.156 437.61 104.805 438.739 105.97C439.868 107.136 440.508 108.722 440.521 110.381V391.547C440.508 393.206 439.868 394.792 438.739 395.957C437.61 397.123 436.085 397.772 434.499 397.763Z" fill="white"/>
<path d="M440.521 195.141H308.04V197.079H440.521V195.141Z" fill="#AAAAAA"/>
<path d="M440.984 305.711H308.503V307.649H440.984V305.711Z" fill="#AAAAAA"/>
<path d="M351.583 104.165H349.73V398.732H351.583V104.165Z" fill="#AAAAAA"/>
<path d="M397.905 104.165H396.052V398.732H397.905V104.165Z" fill="#AAAAAA"/>
</g>
<defs>
<clipPath id="clip0">
<rect width="806" height="504" fill="white"/>
</clipPath>
</defs>
</svg>
